<mxfile host="app.diagrams.net" agent="Mozilla/5.0 (Windows NT 10.0; Win64; x64) AppleWebKit/537.36 (KHTML, like Gecko) Chrome/131.0.0.0 Safari/537.36" version="26.0.4">
  <diagram name="Страница — 1" id="l-d-0YoI3I4PufTae13t">
    <mxGraphModel dx="453" dy="631" grid="1" gridSize="10" guides="1" tooltips="1" connect="1" arrows="1" fold="1" page="1" pageScale="1" pageWidth="827" pageHeight="1169" math="0" shadow="0">
      <root>
        <mxCell id="0" />
        <mxCell id="1" parent="0" />
        <mxCell id="RPkXE7Cwv0xzIH_GUegP-1" value="Виртуальное окружение" style="ellipse;whiteSpace=wrap;html=1;aspect=fixed;" vertex="1" parent="1">
          <mxGeometry x="40" y="40" width="80" height="80" as="geometry" />
        </mxCell>
        <mxCell id="RPkXE7Cwv0xzIH_GUegP-2" value="Создание&lt;div&gt;виртуального&lt;/div&gt;&lt;div&gt;окружения&lt;/div&gt;" style="endArrow=classic;html=1;rounded=0;" edge="1" parent="1" source="RPkXE7Cwv0xzIH_GUegP-1" target="RPkXE7Cwv0xzIH_GUegP-4">
          <mxGeometry width="50" height="50" relative="1" as="geometry">
            <mxPoint x="110" y="220" as="sourcePoint" />
            <mxPoint x="80" y="260" as="targetPoint" />
          </mxGeometry>
        </mxCell>
        <mxCell id="RPkXE7Cwv0xzIH_GUegP-4" value="python -m venv venv&lt;br&gt;Создает папку в указанной директории с именем venv" style="rounded=0;whiteSpace=wrap;html=1;" vertex="1" parent="1">
          <mxGeometry x="20" y="230" width="120" height="80" as="geometry" />
        </mxCell>
        <mxCell id="RPkXE7Cwv0xzIH_GUegP-5" value="Активация&lt;div&gt;виртуального&lt;/div&gt;&lt;div&gt;окружения&lt;/div&gt;" style="endArrow=classic;html=1;rounded=0;" edge="1" parent="1" source="RPkXE7Cwv0xzIH_GUegP-4" target="RPkXE7Cwv0xzIH_GUegP-6">
          <mxGeometry width="50" height="50" relative="1" as="geometry">
            <mxPoint x="110" y="280" as="sourcePoint" />
            <mxPoint x="80" y="420" as="targetPoint" />
          </mxGeometry>
        </mxCell>
        <mxCell id="RPkXE7Cwv0xzIH_GUegP-6" value="&lt;div&gt;.\venv\Scripts\activate&lt;/div&gt;&lt;div&gt;В терминале увидим:&lt;/div&gt;&lt;div&gt;(venv) PS C:\Users\Maksim...&lt;/div&gt;" style="rounded=0;whiteSpace=wrap;html=1;" vertex="1" parent="1">
          <mxGeometry y="430" width="160" height="70" as="geometry" />
        </mxCell>
      </root>
    </mxGraphModel>
  </diagram>
</mxfile>
